# xmcd
#
# Track frame offsets: 
#        150
#        14270
#        23814
#        34488
#        50214
#        67291
#        82605
#        93955
#        105667
#        117854
#        132026
#        143841
#        164094
#
# Disc length: 2555 seconds
#
# Revision: 3
# Processed by: cddbd v1.5.2PL0 Copyright (c) Steve Scherf et al.
# Submitted via: ExactAudioCopy v1.0b3
#
DISCID=b009f90d
DTITLE=Hank Williams III - Straight To Hell
DYEAR=2006
DGENRE=Country
TTITLE0=Satan Is Real Straight To Hell (Medley)
TTITLE1=Thrown Out Of The Bar
TTITLE2=Things You Do To Me
TTITLE3=Country Heroes
TTITLE4=D Ray White
TTITLE5=Low Down
TTITLE6=Pills I Took
TTITLE7=Smoke and Wine
TTITLE8=My Drinkin Problem
TTITLE9=Crazed Country Rebel
TTITLE10=Dick In Dixie
TTITLE11=Not Everybody Likes Us
TTITLE12=Angel Of Sin
EXTD=YEAR: 2006 ID3G:   2
EXTT0=
EXTT1=
EXTT2=
EXTT3=
EXTT4=
EXTT5=
EXTT6=
EXTT7=
EXTT8=
EXTT9=
EXTT10=
EXTT11=
EXTT12=
PLAYORDER=
